<svg xmlns="http://www.w3.org/2000/svg" id="Layer_1" x="0" y="0" version="1.1" viewBox="0 0 120 120" xml:space="preserve"><style>.st2{fill:#ccc}</style><g id="Round-Robin_Database"><g id="back_x5F_circle_74_"><circle cx="60" cy="60" r="50" fill="#f0f0f0"/><circle cx="60" cy="60" r="50" fill="none" stroke="#777" stroke-dasharray=".9971,3.9883" stroke-linecap="square" stroke-width="2"/></g><g id="pic_68_"><circle cx="28" cy="60" r="11" class="st2"/><circle cx="92" cy="60" r="11" class="st2"/><circle cx="60" cy="28" r="11" class="st2"/><circle cx="60" cy="92" r="11" class="st2"/><circle cx="37" cy="83" r="11" class="st2"/><circle cx="37" cy="37" r="11" class="st2"/><circle cx="83" cy="37" r="11" class="st2"/><circle cx="83" cy="83" r="11" class="st2"/><circle id="back_x5F_circle_79_" cx="60" cy="60" r="32" fill="none" stroke="#455a64" stroke-width="2"/><path fill="#ba68c8" stroke="#212121" stroke-linecap="round" stroke-linejoin="round" stroke-width="1.5" d="M20 60c0-4.4 3.6-8 8-8s8 3.6 8 8-3.6 8-8 8-8-3.6-8-8z"/><path fill="#ffb74d" stroke="#212121" stroke-linecap="round" stroke-linejoin="round" stroke-width="1.5" d="M84 60c0-4.4 3.6-8 8-8s8 3.6 8 8-3.6 8-8 8-8-3.6-8-8z"/><path fill="#fff176" stroke="#212121" stroke-linecap="round" stroke-linejoin="round" stroke-width="1.5" d="M52 28c0-4.4 3.6-8 8-8s8 3.6 8 8-3.6 8-8 8-8-3.6-8-8z"/><path fill="#e57373" stroke="#212121" stroke-linecap="round" stroke-linejoin="round" stroke-width="1.5" d="M52 92c0-4.4 3.6-8 8-8s8 3.6 8 8-3.6 8-8 8-8-3.6-8-8z"/><path fill="#f06292" stroke="#212121" stroke-linecap="round" stroke-linejoin="round" stroke-width="1.5" d="M29 83c0-4.4 3.6-8 8-8s8 3.6 8 8-3.6 8-8 8-8-3.6-8-8z"/><path fill="#9575cd" stroke="#212121" stroke-linecap="round" stroke-linejoin="round" stroke-width="1.5" d="M29 37c0-4.4 3.6-8 8-8s8 3.6 8 8-3.6 8-8 8-8-3.6-8-8z"/><path fill="#ffd54f" stroke="#212121" stroke-linecap="round" stroke-linejoin="round" stroke-width="1.5" d="M75 37c0-4.4 3.6-8 8-8s8 3.6 8 8-3.6 8-8 8-8-3.6-8-8z"/><path fill="#ff8a65" stroke="#212121" stroke-linecap="round" stroke-linejoin="round" stroke-width="1.5" d="M75 83c0-4.4 3.6-8 8-8s8 3.6 8 8-3.6 8-8 8-8-3.6-8-8z"/><path fill="none" stroke="#455a64" stroke-dasharray="4,4" stroke-width="2" d="M65 44.8c6.4 2.1 11 8.1 11 15.2 0 8.8-7.2 16-16 16s-16-7.2-16-16c0-5 2.3-9.5 6-12.5"/><path fill="#455a64" d="M51.1 51.7l3.9-6.9-8 .1z"/></g></g></svg>